<svg xmlns="http://www.w3.org/2000/svg" xmlns:xlink="http://www.w3.org/1999/xlink" fill="none" version="1.1" width="20" height="20" viewBox="0 0 20 20"><defs><clipPath id="master_svg0_2_42"><rect x="0" y="0" width="20" height="20" rx="0"/></clipPath></defs><g clip-path="url(#master_svg0_2_42)"><g><path d="M18.333333,16.375L18.333333,3.625Q18.333333,2.81383151,17.759757999999998,2.24025187Q17.186179,1.66666669,16.375,1.66666669L3.625,1.66666669Q2.81383145,1.66666669,2.2402490999999998,2.2402490999999998Q1.66666669,2.81383145,1.66666669,3.625L1.66666669,16.375Q1.66666669,17.186179,2.24025187,17.759757999999998Q2.81383157,18.333333,3.625,18.333333L16.375,18.333333Q17.186177,18.333333,17.759755,17.759755Q18.333333,17.186177,18.333333,16.375ZM16.375,3.33333331Q16.666665000000002,3.33333331,16.666665000000002,3.625L16.666665000000002,16.375Q16.666665000000002,16.666665000000002,16.375,16.666665000000002L3.625,16.666665000000002Q3.33333331,16.666665000000002,3.33333331,16.375L3.33333331,3.625Q3.33333331,3.33333331,3.625,3.33333331L16.375,3.33333331Z" fill-rule="evenodd" fill="#61A7FF" fill-opacity="1" style="mix-blend-mode:passthrough"/></g><g><path d="M15.282294015441895,12.03565663Q15.342606115441894,12.01398611,15.398903415441895,11.98336393Q15.455200715441894,11.95274168,15.506164315441895,11.91388541Q15.557128415441895,11.87502921,15.601564415441894,11.82884955Q15.646000415441895,11.7826699,15.682867015441895,11.73024887Q15.719734215441894,11.67782789,15.748167715441895,11.62039408Q15.776601315441894,11.56296024,15.795935115441894,11.50185943Q15.815269715441895,11.44075865,15.825051515441896,11.37742274Q15.834833415441894,11.314086817,15.834833115441894,11.25Q15.834832915441895,11.16777613,15.818791915441894,11.08713219Q15.802750615441894,11.00648823,15.771284815441895,10.93052328Q15.739819015441896,10.85455832,15.694138015441894,10.78619164Q15.648457015441895,10.717825,15.590315815441894,10.65968394Q15.532174815441895,10.60154289,15.463808315441895,10.55586171Q15.395441515441895,10.510180590000001,15.319476615441895,10.47871488Q15.243511715441894,10.44724917,15.162867515441894,10.43120813Q15.082223915441894,10.41516697,15.000000015441895,10.41516697Q14.802396515441895,10.41516697,14.625760315441894,10.50374883L11.801039605441895,11.71434319Q11.740727815441895,11.73601371,11.684430365441894,11.76663589Q11.628132905441895,11.79725802,11.577169065441895,11.83611423Q11.526205185441894,11.8749705,11.481769145441895,11.92115021Q11.437333105441894,11.96732986,11.400466325441894,12.01975083Q11.363599415441895,12.07217187,11.335165735441894,12.12960577Q11.306732055441895,12.18703961,11.287397865441894,12.248140339999999Q11.268063545441894,12.3092413,11.258281705441895,12.3725772Q11.248499985441894,12.4359132,11.248499985441894,12.5Q11.248499985441894,12.5822239,11.264541145441894,12.6628678Q11.280582185441894,12.743511699999999,11.312047955441894,12.8194766Q11.343513665441895,12.8954415,11.389194785441894,12.963808199999999Q11.434875905441894,13.0321748,11.493016955441895,13.090316099999999Q11.551158015441894,13.1484571,11.619524655441895,13.1941382Q11.687891335441895,13.2398193,11.763856295441894,13.2712851Q11.839821245441895,13.3027506,11.920465205441895,13.3187919Q12.001109145441895,13.3348331,12.083333015441895,13.3348331Q12.280936705441894,13.3348331,12.457573145441895,13.2462511L15.282294015441895,12.03565663Z" fill-rule="evenodd" fill="#61A7FF" fill-opacity="1" style="mix-blend-mode:passthrough"/></g><g><path d="M9.032294492279053,14.53565663Q9.092606592279052,14.51398611,9.148903892279053,14.48336393Q9.205201192279052,14.45274168,9.256164792279053,14.41388541Q9.307128892279053,14.37502921,9.351564892279052,14.32884955Q9.396000892279053,14.2826699,9.432867492279053,14.23024887Q9.469734692279053,14.17782789,9.498168192279053,14.12039408Q9.526601792279052,14.06296024,9.545935592279053,14.00185943Q9.565270192279053,13.94075865,9.575051992279054,13.87742274Q9.584833892279052,13.814086817,9.584833592279052,13.75Q9.584833392279053,13.66777613,9.568792392279052,13.58713219Q9.552751092279053,13.50648823,9.521285292279053,13.43052328Q9.489819492279054,13.35455832,9.444138492279052,13.28619164Q9.398457492279054,13.217825,9.340316292279052,13.15968394Q9.282175292279053,13.10154289,9.213808792279053,13.05586171Q9.145441992279054,13.010180590000001,9.069477092279053,12.97871488Q8.993512192279052,12.94724917,8.912867992279052,12.93120813Q8.832224392279052,12.91516697,8.750000492279053,12.91516697Q8.552396992279053,12.91516697,8.375760792279053,13.00374883L5.551040082279052,14.21434319Q5.490728292279052,14.23601371,5.434430842279053,14.26663589Q5.378133382279053,14.29725802,5.327169542279052,14.33611423Q5.276205662279053,14.3749705,5.231769622279053,14.42115021Q5.187333582279052,14.46732986,5.150466802279053,14.51975083Q5.113599892279053,14.57217187,5.085166212279053,14.62960577Q5.056732532279053,14.68703961,5.037398342279053,14.748140339999999Q5.018064022279052,14.8092413,5.008282182279053,14.8725772Q4.998500462279052,14.9359132,4.998500462279052,15Q4.998500462279052,15.0822239,5.014541622279053,15.1628678Q5.030582662279053,15.243511699999999,5.062048432279052,15.3194766Q5.093514142279052,15.3954415,5.139195262279053,15.463808199999999Q5.184876382279053,15.5321748,5.243017432279053,15.590316099999999Q5.301158492279053,15.6484571,5.369525132279053,15.6941382Q5.4378918122790525,15.7398193,5.513856772279053,15.7712851Q5.589821722279053,15.8027506,5.670465682279053,15.8187919Q5.751109622279053,15.8348331,5.833333492279053,15.8348331Q6.030937182279053,15.8348331,6.207573622279053,15.7462511L9.032294492279053,14.53565663Z" fill-rule="evenodd" fill="#61A7FF" fill-opacity="1" style="mix-blend-mode:passthrough"/></g><g><path d="M5.1935202077209475,8.110187055441894Q4.583333257720947,8.720374225441894,4.583333257720947,9.583333015441895Q4.583333137720947,10.533540215441894,5.981007157720947,12.556952515441894Q6.0276545877209475,12.624484015441894,6.086580457720947,12.681617215441895Q6.145506377720947,12.738750415441896,6.214446187720947,12.783290415441893Q6.283385987720948,12.827830315441894,6.359690547720947,12.858064615441894Q6.435995007720948,12.888299015441895,6.516731707720947,12.903066615441894Q6.597468507720947,12.917833315441895,6.679534907720948,12.916565915441893Q6.761601207720947,12.915298415441894,6.841843407720948,12.898045515441893Q6.922085507720947,12.880792115441896,6.997420107720947,12.848216015441896Q7.072754607720947,12.815639515441895,7.140286207720948,12.768992415441893Q7.265697707720947,12.682364415441896,7.352325707720947,12.556952915441894Q8.749999507720947,10.533541715441896,8.749999507720947,9.583332815441894Q8.750000007720947,8.720374135441894,8.139813407720947,8.110187235441895Q7.529626407720947,7.4999996454418945,6.666667107720947,7.4999996454418945Q5.803707327720947,7.4999996454418945,5.1935202077209475,8.110187055441894ZM6.474522607720948,10.180842615441895Q6.249999877720947,9.731797215441894,6.249999877720947,9.583333015441895Q6.249999937720947,9.410730015441894,6.372031747720947,9.288698195441894Q6.494063507720947,9.166666385441895,6.666667107720947,9.166666385441895Q6.839269907720947,9.166666385441895,6.961301607720947,9.288698015441895Q7.083333007720947,9.410729815441895,7.083333007720947,9.583332815441894Q7.083333007720947,9.731797215441894,6.858810407720947,10.180842615441895Q6.7756346077209475,10.347194215441895,6.6666672077209475,10.537534715441895Q6.557698407720947,10.347194215441895,6.474522607720948,10.180842615441895Z" fill-rule="evenodd" fill="#61A7FF" fill-opacity="1" style="mix-blend-mode:passthrough"/></g><g><path d="M11.860186715441895,5.193520547720947Q11.249999765441894,5.803707717720947,11.249999765441894,6.666666507720947Q11.249999645441894,7.616873707720947,12.647673665441895,9.640286007720947Q12.694321095441895,9.707817507720947,12.753246965441894,9.764950707720947Q12.812172885441894,9.822083907720948,12.881112695441894,9.866623907720946Q12.950052495441895,9.911163807720946,13.026357055441894,9.941398107720946Q13.102661515441895,9.971632507720948,13.183398215441894,9.986400107720947Q13.264135015441894,10.001166807720947,13.346201415441895,9.999899407720946Q13.428267715441894,9.998631907720947,13.508509915441895,9.981379007720946Q13.588752015441894,9.964125607720948,13.664086615441894,9.931549507720948Q13.739421115441894,9.898973007720947,13.806952715441895,9.852325907720946Q13.932364215441895,9.765697907720948,14.018992215441894,9.640286407720946Q15.416666015441894,7.616875207720947,15.416666015441894,6.666666307720948Q15.416666515441895,5.803707627720947,14.806479915441894,5.193520727720947Q14.196292915441894,4.583333137720947,13.333333615441894,4.583333137720947Q12.470373835441894,4.583333137720947,11.860186715441895,5.193520547720947ZM13.141189115441895,7.264176107720948Q12.916666385441895,6.8151307077209475,12.916666385441895,6.666666507720947Q12.916666445441894,6.494063507720947,13.038698255441895,6.3720316877209475Q13.160730015441894,6.249999877720947,13.333333615441894,6.249999877720947Q13.505936415441894,6.249999877720947,13.627968115441895,6.372031507720948Q13.749999515441894,6.494063307720947,13.749999515441894,6.666666307720948Q13.749999515441894,6.8151307077209475,13.525476915441894,7.264176107720948Q13.442301115441895,7.430527707720947,13.333333715441894,7.620868207720948Q13.224364915441894,7.430527707720947,13.141189115441895,7.264176107720948Z" fill-rule="evenodd" fill="#61A7FF" fill-opacity="1" style="mix-blend-mode:passthrough"/></g></g></svg>