<svg xmlns="http://www.w3.org/2000/svg" xmlns:xlink="http://www.w3.org/1999/xlink" fill="none" version="1.1" width="24" height="24" viewBox="0 0 24 24"><defs><clipPath id="master_svg0_2_86"><rect x="0" y="0" width="24" height="24" rx="0"/></clipPath></defs><g clip-path="url(#master_svg0_2_86)"><g><path d="M1.5,18.5L1.5,5.5Q1.5,3.8431458000000003,2.67157285,2.67157285Q3.8431457,1.50000006,5.5,1.5L18.5,1.5Q20.156853,1.5,21.328426,2.67157285Q22.5,3.8431477999999997,22.5,5.5L22.5,18.5Q22.5,20.156851,21.328426,21.328426Q20.156851,22.5,18.5,22.5L5.5,22.5Q3.8431480000000002,22.5,2.67157285,21.328426Q1.50000006,20.156853,1.5,18.5ZM3.5,18.5Q3.5,20.5,5.5,20.5L18.5,20.5Q20.5,20.5,20.5,18.5L20.5,5.5Q20.5,3.5,18.5,3.5L5.5,3.5Q3.5,3.5,3.5,5.5L3.5,18.5Z" fill="#61A7FF" fill-opacity="1" style="mix-blend-mode:passthrough"/></g><g><path d="M16.29303461,11.20696539Q16.15241045,11.06634122,16.07630527,10.88260692Q16.00019997,10.69887258,16.00019997,10.5Q16.00020003,10.401528291,16.01941091,10.3049487Q16.03862178,10.20836911,16.07630527,10.11739314Q16.11398876,10.02641714,16.1686967,9.94454092Q16.22340465,9.8626647,16.29303467,9.79303467Q16.3626647,9.723404649999999,16.44454092,9.66869676Q16.52641714,9.61398882,16.61739314,9.57630533Q16.70836911,9.53862178,16.8049487,9.51941091Q16.901528291,9.50020003,17,9.50019997Q17.19887258,9.50019997,17.38260692,9.57630527Q17.566341219999998,9.65241045,17.70696539,9.79303461L17.70710677,9.79289323L19.2071068,11.29289317Q19.2767508,11.36253703,19.3314695,11.44442964Q19.3861885,11.5263222,19.4238794,11.6173164Q19.461570299999998,11.7083106,19.4807854,11.8049095Q19.5,11.9015083,19.5,11.9999999Q19.5,12.0984912,19.4807851,12.1950902Q19.461570299999998,12.291689,19.4238794,12.3826833Q19.3861885,12.4736774,19.3314695,12.5555701Q19.2767508,12.6374629,19.2071068,12.7071068L17.70710677,14.2071068L17.70696533,14.2069654Q17.56634116,14.3475893,17.38260686,14.423694600000001Q17.19887257,14.4997997,17,14.4998Q16.901528291,14.4997997,16.8049487,14.4805889Q16.70836911,14.461378100000001,16.61739314,14.423694600000001Q16.52641714,14.3860109,16.44454092,14.3313029Q16.3626647,14.2765951,16.29303467,14.2069654Q16.22340465,14.1373353,16.16869676,14.0554588Q16.11398882,13.9735825,16.07630533,13.8826065Q16.03862178,13.7916305,16.01941091,13.695051Q16.00020003,13.5984716,16.00019997,13.5Q16.00019997,13.3011274,16.07630527,13.1173933Q16.15241051,12.9336588,16.29303467,12.7930346L16.29289323,12.7928932L17.085786387,12L16.29289323,11.20710677L16.29303461,11.20696539Z" fill-rule="evenodd" fill="#61A7FF" fill-opacity="1" style="mix-blend-mode:passthrough"/></g><g><path d="M7.7069654,11.20696533Q7.8475895,11.06634116,7.9236946,10.88260686Q7.9997997000000005,10.69887257,7.9998000000000005,10.5Q7.9997997000000005,10.401528291,7.9805889,10.3049487Q7.9613781,10.20836911,7.9236944000000005,10.11739314Q7.8860109000000005,10.02641714,7.8313030999999995,9.94454092Q7.7765951,9.8626647,7.7069652,9.79303467Q7.6373353,9.723404649999999,7.555459,9.66869676Q7.4735826,9.61398882,7.3826066,9.57630533Q7.2916305999999995,9.53862178,7.1950511,9.51941091Q7.0984716,9.50020003,7,9.50019997Q6.8011274,9.50019997,6.6173931,9.57630527Q6.43365872,9.65241051,6.29303461,9.79303467L6.29289317,9.79289323L4.79289323,11.29289317Q4.72324932,11.36253703,4.66853046,11.44442964Q4.61381161,11.5263222,4.57612062,11.6173164Q4.53842956,11.7083106,4.51921487,11.8049095Q4.50000012,11.9015083,4.50000006,11.9999999Q4.50000012,12.0984912,4.51921481,12.1950902Q4.53842956,12.291689,4.57612062,12.3826833Q4.61381161,12.4736774,4.6685304,12.5555701Q4.72324932,12.6374629,4.79289323,12.7071068L6.29289317,14.2071068L6.29303461,14.2069654Q6.43365878,14.3475893,6.617393,14.423694600000001Q6.8011274,14.4997997,7,14.4998Q7.0984716,14.4997997,7.1950511,14.4805889Q7.2916305,14.461378100000001,7.3826065,14.423694600000001Q7.4735825,14.3860109,7.555459,14.3313029Q7.6373353,14.2765951,7.7069652,14.2069654Q7.7765951,14.1373353,7.8313030999999995,14.0554588Q7.8860109000000005,13.9735825,7.9236944000000005,13.8826065Q7.9613781,13.7916305,7.9805889,13.695051Q7.9997997000000005,13.5984716,7.9998000000000005,13.5Q7.9998000000000005,13.3011274,7.9236948,13.1173933Q7.8475895,12.9336588,7.7069654,12.7930346L7.7071068,12.7928932L6.9142136999999995,12L7.7071068,11.20710677L7.7069654,11.20696533Z" fill-rule="evenodd" fill="#61A7FF" fill-opacity="1" style="mix-blend-mode:passthrough"/></g><g><path d="M11.29289317,4.79289323L9.79289323,6.29289317L9.79303467,6.29303461Q9.65241051,6.43365872,9.57630527,6.617393Q9.50019997,6.8011274,9.50019997,7Q9.50020003,7.0984716,9.51941091,7.1950511Q9.53862178,7.2916305,9.57630527,7.3826065Q9.61398876,7.4735825,9.6686967,7.555459Q9.723404649999999,7.6373353,9.79303467,7.7069652Q9.8626647,7.7765951,9.94454092,7.8313030999999995Q10.02641714,7.8860109000000005,10.11739314,7.9236944000000005Q10.20836911,7.9613781,10.3049487,7.9805889Q10.401528291,7.9997997000000005,10.5,7.9998000000000005Q10.69887257,7.9997997000000005,10.88260686,7.9236946Q11.06634116,7.8475895,11.20696533,7.7069654L11.20710677,7.7071068L12,6.9142136999999995L12.7928932,7.7071068L12.7930346,7.7069654Q12.9336588,7.8475895,13.117393,7.9236946Q13.3011274,7.9998000000000005,13.5,7.9998000000000005Q13.5984716,7.9997997000000005,13.695051,7.9805889Q13.7916305,7.9613781,13.8826065,7.9236944000000005Q13.9735825,7.8860109000000005,14.0554588,7.8313030999999995Q14.1373351,7.7765951,14.206965199999999,7.7069652Q14.2765951,7.6373353,14.3313026,7.555459Q14.3860106,7.4735826,14.4236944,7.3826066Q14.4613779,7.2916305999999995,14.4805887,7.1950511Q14.4997997,7.0984716,14.4998,7Q14.4997997,6.8011274,14.423694600000001,6.6173931Q14.3475893,6.43365884,14.2069654,6.29303467L14.2071068,6.29289317L12.7071068,4.79289323Q12.6374629,4.72324932,12.5555701,4.66853046Q12.4736774,4.61381161,12.3826833,4.57612062Q12.291689,4.53842956,12.1950902,4.51921487Q12.0984913,4.50000012,12,4.50000006Q11.9015086,4.50000012,11.8049096,4.51921481Q11.7083106,4.53842956,11.6173165,4.57612062Q11.5263222,4.61381161,11.44442964,4.6685304Q11.36253703,4.72324932,11.29289317,4.79289323Z" fill-rule="evenodd" fill="#61A7FF" fill-opacity="1" style="mix-blend-mode:passthrough"/></g><g><path d="M9.79303461,17.70696539Q9.65241045,17.566341219999998,9.57630527,17.38260692Q9.50019997,17.19887258,9.50019997,17Q9.50020003,16.901528291,9.51941091,16.8049487Q9.53862178,16.70836911,9.57630527,16.61739314Q9.61398876,16.52641714,9.6686967,16.44454092Q9.723404649999999,16.3626647,9.79303467,16.29303467Q9.8626647,16.22340465,9.94454092,16.16869676Q10.02641714,16.11398882,10.11739314,16.07630533Q10.20836911,16.03862178,10.3049487,16.01941091Q10.401528291,16.00020003,10.5,16.00019997Q10.69887258,16.00019997,10.88260692,16.07630527Q11.06634122,16.15241045,11.20696539,16.29303461L11.20710677,16.29289323L12,17.085786387L12.7928932,16.29289323L12.7930346,16.29303467Q12.9336588,16.15241051,13.117393,16.07630527Q13.3011274,16.00019997,13.5,16.00019997Q13.5984716,16.00020003,13.695051,16.01941091Q13.7916305,16.03862178,13.8826065,16.07630527Q13.9735825,16.11398876,14.0554588,16.1686967Q14.1373351,16.22340465,14.206965199999999,16.29303467Q14.2765951,16.3626647,14.3313026,16.44454092Q14.3860106,16.52641714,14.4236944,16.61739314Q14.4613779,16.70836911,14.4805887,16.8049487Q14.4997997,16.901528291,14.4998,17Q14.4997997,17.19887257,14.423694600000001,17.38260686Q14.3475893,17.56634116,14.2069654,17.70696533L14.2071068,17.70710677L12.7071068,19.2071068Q12.6374629,19.2767508,12.5555701,19.3314695Q12.4736774,19.3861885,12.3826833,19.4238794Q12.291689,19.461570299999998,12.1950902,19.4807854Q12.0984913,19.5,12,19.5Q11.9015086,19.5,11.8049096,19.4807851Q11.7083106,19.461570299999998,11.6173165,19.4238794Q11.5263222,19.3861885,11.44442964,19.3314695Q11.36253703,19.2767508,11.29289317,19.2071068L9.79289323,17.70710677L9.79303461,17.70696539Z" fill-rule="evenodd" fill="#61A7FF" fill-opacity="1" style="mix-blend-mode:passthrough"/></g></g></svg>