<svg xmlns="http://www.w3.org/2000/svg" xmlns:xlink="http://www.w3.org/1999/xlink" fill="none" version="1.1" width="20" height="20" viewBox="0 0 20 20"><defs><clipPath id="master_svg0_2_37"><rect x="0" y="0" width="20" height="20" rx="0"/></clipPath></defs><g clip-path="url(#master_svg0_2_37)"><g><path d="M7.540190670989991,2.429499326930237L5.103378270989991,2.4248597669302367Q5.03759407098999,2.4247344769302366,4.97260527098999,2.434932646930237Q4.90761617098999,2.445130826930237,4.84503217098999,2.465399686930237Q4.78244827098999,2.4856685369302367,4.723819770989991,2.5155060869302366Q4.66519117098999,2.545343636930237,4.611970870989991,2.5840106569302366Q4.55875017098999,2.6226776869302366,4.51225587098999,2.669216226930237Q4.46576167098999,2.715755026930237,4.427145270989991,2.7690123269302367Q4.38852887098999,2.822269726930237,4.358746970989991,2.880926526930237Q4.32896517098999,2.9395833269302365,4.30875607098999,3.002186526930237L3.56014267098999,5.321193326930237L1.5859925409899902,6.749762626930237Q1.5326982709899903,6.788328726930237,1.4861153409899903,6.834778926930237Q1.4395323409899903,6.881229026930237,1.4008146509899904,6.934412626930237Q1.3620969009899904,6.987597126930237,1.3322035109899901,7.046197026930237Q1.30231023098999,7.104797526930237,1.2819818209899903,7.167361826930237Q1.2616533009899902,7.229927226930236,1.2513933209899903,7.2949062269302365Q1.2411334509899903,7.3598858269302365,1.2411962109899903,7.425669826930237Q1.2412588609899902,7.491454726930237,1.2516427009899902,7.556414226930237Q1.2620265509899902,7.621373726930237,1.2824742809899903,7.683899026930237L2.0399035769899903,9.999999626930236L1.2824741609899903,12.316099626930237Q1.2620264309899902,12.378626626930236,1.2516425809899903,12.443586626930237Q1.2412587409899902,12.508545626930237,1.2411960909899902,12.574329626930236Q1.2411333309899901,12.640114626930236,1.2513933209899903,12.705093626930237Q1.2616531809899902,12.770073626930238,1.2819817109899903,12.832637626930238Q1.3023101109899904,12.895203626930236,1.3322033909899902,12.953803626930236Q1.3620967909899901,13.012403626930237,1.4008145309899902,13.065587626930236Q1.4395322209899901,13.118771626930236,1.4861152209899902,13.165220626930237Q1.5326981509899902,13.211671626930237,1.5859924809899901,13.250236626930237L3.5601433709899903,14.678806626930237L4.30875657098999,16.99779662693024Q4.328965670989991,17.06039762693024,4.358746970989991,17.11905362693024Q4.38852837098999,17.177710626930235,4.42714457098999,17.230967626930237Q4.465760270989991,17.28422462693024,4.51225397098999,17.330763626930235Q4.55874777098999,17.377300626930236,4.61196757098999,17.415968626930237Q4.66518737098999,17.454635626930237,4.72381477098999,17.484472626930234Q4.78244207098999,17.51431062693024,4.84502527098999,17.53457962693024Q4.9076080709899905,17.554848626930237,4.97259637098999,17.565046626930236Q5.03758457098999,17.575245626930236,5.1033680709899905,17.575122626930238L7.54018787098999,17.570513626930236L9.508900670989991,19.006582626930236Q9.56204747098999,19.045351626930238,9.62061877098999,19.075300626930236Q9.67919017098999,19.105247626930236,9.74173407098999,19.125635626930237Q9.80427937098999,19.146025626930236,9.869247870989991,19.156345626930236Q9.93421697098999,19.166666626930237,10.00000047098999,19.166666626930237Q10.065784470989989,19.166666626930237,10.130753970989991,19.156345626930236Q10.19572207098999,19.146023626930237,10.25826697098999,19.125633626930238Q10.320811770989991,19.10524662693024,10.37938357098999,19.075298626930238Q10.43795447098999,19.045351626930238,10.49110077098999,19.006582626930236L12.45981117098999,17.570513626930236L14.89663217098999,17.575122626930238Q14.96241517098999,17.575245626930236,15.02740217098999,17.565045626930235Q15.09239017098999,17.554848626930237,15.15497317098999,17.534578626930237Q15.217555170989991,17.514309626930235,15.27618317098999,17.48447062693024Q15.33481217098999,17.45463362693024,15.38803117098999,17.415966626930235Q15.44125117098999,17.377299626930238,15.48774417098999,17.330761626930236Q15.53423817098999,17.28422462693024,15.57285417098999,17.230967626930237Q15.61147017098999,17.177710626930235,15.64125217098999,17.11905362693024Q15.67103317098999,17.06039762693024,15.69124317098999,16.99779662693024L16.43985517098999,14.678805626930236L18.41399717098999,13.250235626930237Q18.46729017098999,13.211670626930237,18.51387117098999,13.165220626930237Q18.56045717098999,13.118771626930236,18.59917417098999,13.065586626930237Q18.63789117098999,13.012403626930237,18.667783170989992,12.953802626930237Q18.69767717098999,12.895203626930236,18.71800517098999,12.832638626930237Q18.73833417098999,12.770074626930237,18.74859617098999,12.705095626930238Q18.75885517098999,12.640116626930237,18.75879417098999,12.574332626930238Q18.75873317098999,12.508548626930237,18.74834917098999,12.443588626930238Q18.73796417098999,12.378628626930237,18.71751517098999,12.316103626930238L17.960096170989992,9.999999626930236L18.71751517098999,7.683895726930237Q18.73796417098999,7.621370426930237,18.748348170989992,7.556410926930237Q18.75873117098999,7.491451826930237,18.75879217098999,7.425667926930237Q18.75885517098999,7.3598839269302365,18.74859417098999,7.2949043269302365Q18.73833417098999,7.229925226930237,18.71800517098999,7.167360926930237Q18.69767717098999,7.104796526930237,18.66778517098999,7.046196626930237Q18.63789117098999,6.987597126930237,18.599176170989992,6.9344135269302365Q18.56045717098999,6.881230026930237,18.51387517098999,6.834779426930237Q18.46729017098999,6.788329726930237,18.41399717098999,6.749764126930237L16.43985617098999,5.3211945269302365L15.69124317098999,3.002186726930237Q15.67103417098999,2.939583526930237,15.641253170989991,2.8809267269302365Q15.61147117098999,2.822269926930237,15.57285517098999,2.769012526930237Q15.53423917098999,2.7157551269302367,15.48774517098999,2.669216526930237Q15.44125117098999,2.6226778069302368,15.38803017098999,2.5840107769302367Q15.334810170989991,2.545343696930237,15.27618117098999,2.5155061469302367Q15.21755217098999,2.485668596930237,15.15496917098999,2.465399686930237Q15.092384170989991,2.445130826930237,15.02739617098999,2.434932646930237Q14.96240617098999,2.4247344769302366,14.89662217098999,2.4248597669302367L12.45980917098999,2.429499326930237L10.49110367098999,0.9934191669302368Q10.43795727098999,0.9546509969302368,10.37938647098999,0.9247019269302368Q10.32081457098999,0.8947528569302368,10.25826977098999,0.8743649169302368Q10.19572397098999,0.8539770269302368,10.130753970989991,0.8436552269302369Q10.065784470989989,0.8333333769302368,10.00000047098999,0.8333333769302368Q9.93421607098999,0.8333333769302368,9.869246970989991,0.8436551069302368Q9.80427787098999,0.8539769069302369,9.74173307098999,0.8743647969302368Q9.67918777098999,0.8947527369302368,9.62061647098999,0.9247018069302368Q9.56204457098999,0.9546507569302368,9.50889777098999,0.9934189869302368L7.540190670989991,2.429499326930237ZM7.80953787098999,4.096681926930237Q7.94233747098999,4.096934426930237,8.06863787098999,4.055897126930237Q8.19493817098999,4.014859826930237,8.30222747098999,3.936597726930237L10.00000047098999,2.6981512269302366L11.69777157098999,3.9365972269302367Q11.80505897098999,4.014859326930237,11.93135977098999,4.055896926930236Q12.05766057098999,4.096934426930237,12.190461170989991,4.096681926930237L14.29191517098999,4.092680826930237L14.93750417098999,6.092546126930237Q14.97830117098999,6.218924126930236,15.05635917098999,6.326361726930237Q15.13441617098999,6.4337994269302365,15.24200317098999,6.511652626930236L16.94445917098999,7.743620526930237L16.29127617098999,9.740978826930236Q16.25000117098999,9.867201426930237,16.25000117098999,10.000000626930238Q16.25000117098999,10.132799726930237,16.29127617098999,10.259020426930237L16.94445917098999,12.256377626930236L15.24200317098999,13.488346626930237Q15.13441817098999,13.566200626930236,15.05636017098999,13.673636626930238Q14.97830217098999,13.781074626930236,14.93750517098999,13.907451626930238L14.29191517098999,15.907308626930236L12.19045017098999,15.903333626930237Q12.05765387098999,15.903082626930237,11.93135787098999,15.944118626930237Q11.80506087098999,15.985156626930237,11.69777437098999,16.063415626930237L10.00000047098999,17.30185362693024L8.30222467098999,16.063415626930237Q8.19493917098999,15.985156626930237,8.068642170989989,15.944119626930236Q7.942345170989991,15.903082626930237,7.80954887098999,15.903333626930237L5.708084570989991,15.907308626930236L5.06249357098999,13.907451626930238Q5.02169657098999,13.781073626930237,4.94363857098999,13.673635626930237Q4.865580570989991,13.566198626930237,4.75799487098999,13.488345626930236L3.0555309609899903,12.256377626930236L3.7087216709899904,10.259024226930237Q3.7499999709899905,10.132799726930237,3.7499999709899905,9.999998726930237Q3.7499999709899905,9.867197626930237,3.7087216709899904,9.740975026930236L3.0555309009899903,7.743621026930237L4.75799487098999,6.511654026930237Q4.86558107098999,6.433800326930236,4.943639270989991,6.3263627269302365Q5.02169727098999,6.218924626930237,5.06249407098999,6.092546126930237L5.70808337098999,4.092680826930237L7.80953787098999,4.096681926930237Z" fill-rule="evenodd" fill="#61A7FF" fill-opacity="1" style="mix-blend-mode:passthrough"/></g><g><path d="M13.887221792279053,8.541289267720947Q14.021229292279052,8.422457997720947,14.094697992279052,8.259114827720948Q14.168166592279054,8.095771687720948,14.168166192279052,7.916666507720947Q14.168165692279054,7.834442637720947,14.152124392279053,7.753798697720947Q14.136083092279053,7.673154737720948,14.104617592279052,7.597189787720947Q14.073151592279054,7.521224827720947,14.027470592279052,7.4528581477209475Q13.981789092279053,7.384491507720948,13.923648392279052,7.326350447720947Q13.865507592279052,7.268209397720947,13.797141092279052,7.2225282177209476Q13.728774092279053,7.176847097720947,13.652809192279053,7.145381387720947Q13.576844192279053,7.113915677720947,13.496200092279054,7.097874637720947Q13.415556392279052,7.081833477720947,13.333332992279054,7.081833477720947Q13.154226792279053,7.081833477720947,12.990881892279052,7.155303537720947Q12.827537992279053,7.228773597720947,12.708706392279053,7.362782237720947L9.166666992279053,10.904821607720947L7.7079569122790526,9.446112107720948Q7.589125632279052,9.312105207720947,7.425782262279053,9.238636107720946Q7.2624389422790525,9.165167107720947,7.083333492279053,9.165167007720948Q7.001109622279053,9.165167007720948,6.920465682279053,9.181208007720947Q6.839821722279053,9.197249207720947,6.763856772279053,9.228714707720947Q6.6878918122790525,9.260180507720948,6.619525132279053,9.305861507720948Q6.551158492279053,9.351542707720947,6.493017432279053,9.409683807720947Q6.434876382279053,9.467824807720948,6.389195202279053,9.536191507720947Q6.343514082279053,9.604558107720948,6.312048372279053,9.680523107720948Q6.280582662279053,9.756488107720948,6.264541622279053,9.837132207720947Q6.248500462279052,9.917776107720947,6.248500462279052,10.000000007720947Q6.248500462279052,10.179105807720948,6.321969572279053,10.342448907720946Q6.395438672279052,10.505792407720946,6.529445652279053,10.624623507720948L8.577411392279053,12.672588307720947Q8.694621592279052,12.789799207720947,8.847764092279053,12.853232907720948Q9.000906692279052,12.916666507720947,9.166666992279053,12.916666507720947Q9.332427292279053,12.916666507720947,9.485569992279054,12.853232407720947Q9.638712392279054,12.789798707720948,9.755922792279053,12.672588307720947L13.887221792279053,8.541289267720947Z" fill-rule="evenodd" fill="#61A7FF" fill-opacity="1" style="mix-blend-mode:passthrough"/></g></g></svg>