<svg xmlns="http://www.w3.org/2000/svg" xmlns:xlink="http://www.w3.org/1999/xlink" fill="none" version="1.1" width="20" height="20" viewBox="0 0 20 20"><defs><clipPath id="master_svg0_2_70"><rect x="0" y="0" width="20" height="20" rx="0"/></clipPath></defs><g clip-path="url(#master_svg0_2_70)"><g><path d="M1.970655561866455,13.89945316090088L3.383505461866455,17.78478626090088L4.949827631866455,17.21521376090088L3.5369776518664553,13.329881160900879L3.537032241866455,13.329829660900879L10.000010031866456,10.09835642090088L16.463018131866455,13.329849760900878L15.050170131866455,17.21521666090088L16.616495131866454,17.784782360900877L18.029317131866456,13.89947936090088Q18.246318131866452,13.302788760900878,18.011300131866456,12.712955260900879Q17.776298131866454,12.123162060900878,17.208385131866457,11.83914326090088L10.745343731866456,8.60764378090088Q10.000000431866455,8.23497186090088,9.254656831866455,8.60764301090088L2.791567481866455,11.83917216090088Q2.223713011866455,12.12315126090088,1.9887005118664551,12.71294256090088Q1.753674981866455,13.30276676090088,1.970655561866455,13.89945316090088Z" fill-rule="evenodd" fill="#61A7FF" fill-opacity="1" style="mix-blend-mode:passthrough"/></g><g><path d="M16.250000492279053,11.666666492279052L16.250000492279053,6.666666452279053Q16.250000492279053,5.976300952279053,15.761848492279054,5.488150152279053Q15.273698492279053,5.000000182279052,14.583333492279053,5.0000003022790525L5.416666452279053,5.000000182279052Q4.726301132279053,5.000000182279052,4.238150682279053,5.488150652279053Q3.7500001822790527,5.976301102279053,3.750000302279053,6.666666572279053L3.7500001822790527,11.666666492279052Q3.750000242279053,11.748742592279052,3.7660124322790525,11.829241292279054Q3.7820247422790527,11.909739992279054,3.8134340022790525,11.985568492279054Q3.8448431522790525,12.061397092279051,3.890442252279053,12.129641092279051Q3.936041232279053,12.197884992279054,3.9940778622790525,12.255921792279054Q4.052114482279053,12.313958692279053,4.120358352279053,12.359557592279053Q4.188602152279053,12.405156592279052,4.264430642279053,12.436565892279052Q4.340259132279053,12.467975092279053,4.420758232279053,12.483987292279053Q4.501257330279053,12.499999492279052,4.583333492279053,12.499999992279053Q4.766364652279052,12.499999992279053,4.9325494122790525,12.423298792279052L10.000007592279053,10.084465492279053L10.000045292279053,10.084490292279053L15.067451492279053,12.423299292279053Q15.141972492279052,12.457693592279053,15.221771492279053,12.476889092279052Q15.301570492279053,12.496084192279053,15.383582492279054,12.499342392279052Q15.465592492279052,12.502600692279053,15.546664492279053,12.489797092279053Q15.627736492279054,12.476993092279052,15.704752492279052,12.448619392279053Q15.781768492279053,12.420245192279053,15.851768492279053,12.377391292279054Q15.921767492279052,12.334536992279052,15.982062492279052,12.278850592279053Q16.042357492279052,12.223163592279054,16.09063149227905,12.156784092279054Q16.138904492279053,12.090403992279054,16.173299492279053,12.015882492279053Q16.250000492279053,11.849698092279052,16.250000492279053,11.666666492279052ZM5.416666452279053,6.666666802279053L14.583333492279053,6.666666452279053L14.583333492279053,10.364240692279052L10.698370492279054,8.571176092279053Q9.999999992279053,8.248910192279052,9.301575692279052,8.571200892279052L5.416666682279053,10.364240692279052L5.416666452279053,6.666666802279053Z" fill-rule="evenodd" fill="#61A7FF" fill-opacity="1" style="mix-blend-mode:passthrough"/></g><g><path d="M8.749999817720948,5.783315826930237Q8.751499537720948,5.808302526930237,8.751499537720948,5.833333626930237Q8.751499537720948,5.915557526930237,8.735458377720947,5.996201126930237Q8.719417337720948,6.076844826930237,8.687951567720948,6.152809726930236Q8.656485857720947,6.228774626930237,8.610804737720947,6.2971416269302365Q8.565123617720948,6.3655082269302365,8.506982567720947,6.423649426930237Q8.448841507720948,6.481790626930237,8.380474867720947,6.527471626930237Q8.312108187720947,6.573153126930237,8.236143227720948,6.604618626930237Q8.160178277720947,6.636084226930237,8.079534317720947,6.6521250269302366Q7.998890377720947,6.668166726930237,7.916666507720947,6.668166726930237Q7.834442637720947,6.668166726930237,7.753798697720947,6.6521250269302366Q7.673154737720948,6.636084226930237,7.597189787720947,6.604618226930237Q7.521224827720947,6.573152626930237,7.4528581477209475,6.527471626930237Q7.384491507720948,6.481790626930237,7.326350447720947,6.423649426930237Q7.268209397720947,6.3655082269302365,7.2225282177209476,6.2971416269302365Q7.176847097720947,6.228774626930237,7.145381387720947,6.152809726930236Q7.113915677720947,6.076844826930237,7.097874637720947,5.996201126930237Q7.081833477720947,5.915557526930237,7.081833477720947,5.833333626930237Q7.081833477720947,5.808302026930237,7.083333197720947,5.783315826930237L7.083333197720947,2.499999996930237Q7.083333197720947,1.8096442069302368,7.571480957720947,1.3214916269302368Q8.059634317720947,0.8333334369302369,8.750000117720948,0.8333334969302368L11.250000007720947,0.8333333169302368Q11.940365807720948,0.8333333169302368,12.428518807720948,1.3214918069302368Q12.916666007720949,1.8096442369302368,12.916666007720949,2.499999996930237L12.916666007720949,5.783309126930237Q12.918166207720947,5.808298726930237,12.918166207720947,5.833333626930237Q12.918165707720947,5.915557526930237,12.902124407720947,5.996201126930237Q12.886083107720946,6.076844826930237,12.854617607720947,6.152809726930236Q12.823152107720947,6.228774626930237,12.777470607720947,6.2971416269302365Q12.731790107720947,6.3655082269302365,12.673648807720948,6.423649426930237Q12.615507607720946,6.481790626930237,12.547141107720947,6.527471626930237Q12.478774507720948,6.573153126930237,12.402809607720947,6.604618626930237Q12.326844707720948,6.636084226930237,12.246200607720947,6.6521250269302366Q12.165556407720947,6.668166726930237,12.083333007720947,6.668166726930237Q12.001109107720946,6.668166726930237,11.920465007720948,6.6521250269302366Q11.839820907720947,6.636084226930237,11.763855707720946,6.604618226930237Q11.687890807720947,6.573152626930237,11.619524007720948,6.527471626930237Q11.551157507720948,6.481790626930237,11.493016507720947,6.423649426930237Q11.434875507720948,6.3655082269302365,11.389194207720948,6.2971416269302365Q11.343513007720947,6.228774626930237,11.312047507720948,6.152809726930236Q11.280581707720948,6.076844826930237,11.264540707720947,5.996201126930237Q11.248499607720948,5.915557526930237,11.248499907720948,5.833333626930237Q11.248499907720948,5.808300626930237,11.249999807720947,5.783312926930237L11.249999807720947,2.499999996930237L8.749999877720947,2.500000056930237L8.749999817720948,5.783315826930237Z" fill-rule="evenodd" fill="#61A7FF" fill-opacity="1" style="mix-blend-mode:passthrough"/></g><g><path d="M10.83333331,13.383350711441894Q10.83483303,13.358364345441894,10.83483303,13.333333015441895Q10.83483303,13.251109145441895,10.81879187,13.170465205441895Q10.80275083,13.089821245441895,10.77128506,13.013856295441894Q10.73981935,12.937891335441895,10.69413823,12.869524655441895Q10.64845711,12.801158015441894,10.59031606,12.743016955441895Q10.532175,12.684875905441894,10.46380836,12.639194725441895Q10.39544168,12.593513605441895,10.31947672,12.562047895441895Q10.24351177,12.530582185441894,10.16286781,12.514541145441894Q10.08222387,12.498499985441894,10,12.498499985441894Q9.91777613,12.498499985441894,9.83713219,12.514541145441894Q9.75648823,12.530582185441894,9.68052328,12.562047955441894Q9.60455832,12.593513665441895,9.53619164,12.639194785441894Q9.467825,12.684875905441894,9.40968394,12.743016955441895Q9.35154289,12.801158015441894,9.30586171,12.869524655441895Q9.260180590000001,12.937891335441895,9.22871488,13.013856295441894Q9.19724917,13.089821245441895,9.18120813,13.170465205441895Q9.16516697,13.251109145441895,9.16516697,13.333333015441895Q9.16516697,13.358364345441894,9.16666669,13.383350711441894L9.16666669,16.616648415441894Q9.16516697,16.641634715441896,9.16516697,16.666666015441894Q9.16516697,16.748889715441894,9.18120813,16.829533615441896Q9.19724917,16.910177715441893,9.22871494,16.986142615441896Q9.26018065,17.062107515441895,9.30586177,17.130474315441894Q9.35154289,17.198841115441894,9.40968394,17.256982115441893Q9.467825,17.315123115441896,9.53619164,17.360804115441894Q9.60455832,17.406485115441896,9.68052328,17.437951115441894Q9.75648823,17.469416615441894,9.83713219,17.485457915441895Q9.91777613,17.501499215441896,10,17.501499215441896Q10.08222387,17.501499215441896,10.16286781,17.485458415441894Q10.24351177,17.469416615441894,10.31947672,17.437951115441894Q10.39544168,17.406485115441896,10.46380836,17.360804115441894Q10.532175,17.315123115441896,10.59031606,17.256982115441893Q10.64845711,17.198841115441894,10.69413829,17.130474315441894Q10.739819409999999,17.062107515441895,10.77128512,16.986142415441893Q10.80275083,16.910177515441895,10.81879187,16.829533615441896Q10.83483303,16.748889715441894,10.83483303,16.666666015441894Q10.83483303,16.641634715441896,10.83333331,16.616648415441894L10.83333331,13.383350711441894Z" fill-rule="evenodd" fill="#61A7FF" fill-opacity="1" style="mix-blend-mode:passthrough"/></g><g><path d="M18.287891626930236,17.49973866472Q18.310596626930238,17.4985009432,18.333334626930238,17.4985009432Q18.41555862693024,17.4985009432,18.496201626930237,17.514542023Q18.576845626930236,17.530583102,18.652809626930235,17.562048808Q18.728773626930238,17.593514517,18.797140626930236,17.63919565Q18.86550762693024,17.68487678,18.92364962693024,17.74301785Q18.981791626930235,17.80115891,19.02747062693024,17.86952555Q19.073151626930237,17.9378922,19.104616626930238,18.01385713Q19.136084626930238,18.08982205,19.152124626930238,18.17046607Q19.168165626930236,18.25111008,19.168167626930238,18.333333969999998Q19.168165626930236,18.4155578,19.152124626930238,18.49620175Q19.136084626930238,18.5768456,19.104616626930238,18.6528106Q19.073151626930237,18.7287755,19.02747062693024,18.7971423Q18.981791626930235,18.865508900000002,18.92364962693024,18.92365Q18.86550762693024,18.981791,18.797140626930236,19.0274723Q18.728773626930238,19.0731533,18.652809626930235,19.104619Q18.576845626930236,19.1360848,18.496201626930237,19.1521258Q18.41555862693024,19.1681669,18.333334626930238,19.168167Q18.306175626930237,19.168167,18.279072626930237,19.1664017Q17.583405626930237,19.1595626,17.033455626930238,18.976647Q16.801058626930235,18.8993506,16.56818762693024,18.7824508Q16.439527626930236,18.7178646,16.224223626930236,18.5935585Q15.961276626930237,18.44174594,15.839684626930238,18.39807397Q15.659431626930237,18.33333331,15.416665626930238,18.33333331Q15.160484626930236,18.33333331,14.983971626930236,18.40393889Q14.869221626930237,18.44983858,14.628917626930237,18.610042Q14.244222626930236,18.8665055,13.968346626930236,18.976856Q13.493817626930237,19.1666673,12.916666626930237,19.1666673Q12.375636626930238,19.1666673,11.892100626930237,18.9997617Q11.617562926930237,18.9049976,11.188554426930237,18.6756037Q10.843128826930236,18.49090207,10.660330426930237,18.43013507Q10.369131726930236,18.33333331,9.999999626930236,18.33333331Q9.630868126930237,18.33333331,9.339669826930237,18.43013519Q9.156870026930237,18.49090242,8.811444926930236,18.6756037Q8.382437326930237,18.9049971,8.107899326930237,18.9997617Q7.624363526930237,19.1666673,7.083335026930237,19.1666673Q6.506181826930237,19.1666673,6.031654026930237,18.976856Q5.755778926930237,18.8665059,5.371083426930237,18.6100421Q5.130779126930237,18.44983917,5.016028526930237,18.40393889Q4.839514826930237,18.33333331,4.583333626930237,18.33333331Q4.3405672269302364,18.33333331,4.160314426930237,18.39807421Q4.038719726930237,18.44174707,3.7757741269302367,18.5935589Q3.560472126930237,18.7178634,3.431810626930237,18.7824509Q3.198938726930237,18.8993514,2.9665439269302367,18.9766471Q2.416595816930237,19.1595626,1.7209283899302368,19.1664017Q1.6938262229302368,19.168167,1.6666666269302368,19.168167Q1.5844427569302368,19.1681669,1.5037988169302368,19.1521257Q1.4231548569302368,19.1360847,1.3471899069302369,19.1046189Q1.2712249469302368,19.0731531,1.2028582669302368,19.027472Q1.1344916269302368,18.9817909,1.0763505669302367,18.9236499Q1.018209516930237,18.8655088,0.9725283369302368,18.7971421Q0.9268472169302369,18.7287755,0.8953815069302368,18.6528106Q0.8639157969302368,18.5768456,0.8478747569302368,18.49620175Q0.8318335969302368,18.4155578,0.8318335969302368,18.333333969999998Q0.8318335969302368,18.25111008,0.8478747569302368,18.17046607Q0.8639157969302368,18.08982205,0.8953815669302368,18.01385713Q0.9268472769302368,17.9378922,0.9725283969302368,17.86952555Q1.018209516930237,17.80115891,1.0763505669302367,17.74301785Q1.1344916269302368,17.68487678,1.2028582669302368,17.63919565Q1.2712249469302368,17.593514517,1.3471899069302369,17.562048811Q1.4231548569302368,17.530583102,1.5037988169302368,17.514542023Q1.5844427569302368,17.4985009432,1.6666666269302368,17.4985009432Q1.689404883930237,17.4985009432,1.712109427930237,17.49973866393Q2.1410703969302367,17.4947657217,2.440534296930237,17.3951631Q2.6235657969302366,17.3342859,2.942440426930237,17.15018344Q3.3347555269302367,16.92368019,3.596938526930237,16.8295126Q4.050337226930237,16.66666669,4.583333626930237,16.66666669Q5.160486126930237,16.66666669,5.635013726930237,16.85647798Q5.910887826930237,16.96682769,6.295583826930237,17.22329187Q6.535888826930237,17.38349509,6.650638226930237,17.429395013Q6.8271523269302365,17.5,7.083335026930237,17.5Q7.3448087269302365,17.5,7.564088026930237,17.424310237Q7.713387126930237,17.37277548,8.025559526930238,17.20585477Q8.496284126930238,16.95415509,8.813914926930238,16.84856629Q9.361103626930237,16.66666669,9.999999626930236,16.66666669Q10.638896626930237,16.66666669,11.186084426930236,16.84856623Q11.503716126930236,16.95415497,11.974440626930237,17.20585456Q12.286613626930237,17.37277587,12.435911626930237,17.42431014Q12.655191626930236,17.5,12.916666626930237,17.5Q13.172847626930237,17.5,13.349361626930238,17.429395013Q13.464112626930238,17.38349466,13.704415626930237,17.22329184Q14.089111626930237,16.96682793,14.364985626930237,16.85647792Q14.839513626930238,16.66666669,15.416665626930238,16.66666669Q15.949663626930237,16.66666669,16.40306162693024,16.829512479999998Q16.665240626930235,16.92367858,17.057557626930237,17.15018284Q17.37643262693024,17.33428615,17.55946362693024,17.3951629Q17.858929626930237,17.4947657217,18.287891626930236,17.49973866472Z" fill-rule="evenodd" fill="#61A7FF" fill-opacity="1" style="mix-blend-mode:passthrough"/></g></g></svg>