<svg xmlns="http://www.w3.org/2000/svg" xmlns:xlink="http://www.w3.org/1999/xlink" fill="none" version="1.1" width="20" height="20" viewBox="0 0 20 20"><defs><clipPath id="master_svg0_2_523"><rect x="0" y="0" width="20" height="20" rx="0"/></clipPath><clipPath id="master_svg1_2_60"><rect x="0" y="0" width="20" height="20" rx="0"/></clipPath></defs><g clip-path="url(#master_svg0_2_523)"><g clip-path="url(#master_svg1_2_60)"><g><path d="M5.83333337,6.716683208720947Q5.83483303,6.691697340720947,5.83483303,6.666666507720947Q5.83483303,6.584442637720947,5.81879187,6.503798697720947Q5.80275083,6.423154737720948,5.77128506,6.347189787720947Q5.73981935,6.271224827720947,5.69413823,6.2028581477209475Q5.64845711,6.134491507720948,5.59031606,6.076350447720947Q5.532175,6.018209397720947,5.46380836,5.9725282177209476Q5.39544168,5.926847097720947,5.31947672,5.895381387720947Q5.24351177,5.863915677720947,5.16286781,5.847874637720947Q5.08222387,5.831833477720947,5,5.831833477720947Q4.91777613,5.831833477720947,4.83713219,5.847874637720947Q4.75648823,5.863915677720947,4.68052328,5.895381447720947Q4.60455832,5.926847157720947,4.53619164,5.972528277720947Q4.467825,6.018209397720947,4.40968394,6.076350447720947Q4.35154289,6.134491507720948,4.30586171,6.2028581477209475Q4.26018059,6.271224827720947,4.22871488,6.347189787720947Q4.19724917,6.423154737720948,4.18120813,6.503798697720947Q4.16516697,6.584442637720947,4.16516697,6.666666507720947Q4.16516697,6.691697340720947,4.16666663,6.716683208720947L4.16666663,18.333335507720946Q4.16666663,18.415411507720947,4.18267894,18.495910507720946Q4.19869119,18.57640850772095,4.2301003900000005,18.652236507720946Q4.2615095400000005,18.72806550772095,4.30710864,18.796308507720948Q4.35270774,18.864552507720948,4.41074431,18.922589507720947Q4.46878093,18.980625507720948,4.5370248,19.026225507720948Q4.60526866,19.071824507720947,4.68109715,19.103233507720947Q4.75692564,19.134642507720947,4.83742473,19.15065550772095Q4.91792383,19.166667507720945,5,19.16666850772095L15,19.16666850772095Q15.082076,19.166667507720945,15.162575,19.15065550772095Q15.243073,19.134642507720947,15.318902,19.103233507720947Q15.39473,19.071824507720947,15.462975,19.026225507720948Q15.531218,18.98062650772095,15.589255,18.922590507720948Q15.647291,18.86455350772095,15.692891,18.79630950772095Q15.73849,18.72806550772095,15.769899,18.652237507720947Q15.801309,18.57640850772095,15.817321,18.495910507720946Q15.833334,18.415411507720947,15.833334,18.333335507720946L15.833334,6.716675258720947Q15.834833,6.691693356720947,15.834833,6.666666507720947Q15.834833,6.584442637720947,15.818791,6.503798697720947Q15.802751,6.423154737720948,15.771284,6.347189787720947Q15.739819,6.271224827720947,15.694138,6.2028581477209475Q15.648457,6.134491507720948,15.590316,6.076350447720947Q15.532174,6.018209397720947,15.463807,5.9725282177209476Q15.39544,5.926847097720947,15.319475,5.895381387720947Q15.24351,5.863915677720947,15.162867,5.847874637720947Q15.082224,5.831833477720947,15,5.831833477720947Q14.9177761,5.831833477720947,14.8371315,5.847874637720947Q14.7564869,5.863915677720947,14.680522,5.895381447720947Q14.604557,5.926847157720947,14.53619,5.972528277720947Q14.467824,6.018209397720947,14.4096832,6.076350447720947Q14.3515415,6.134491507720948,14.3058605,6.2028581477209475Q14.2601795,6.271224827720947,14.228714,6.347189787720947Q14.1972485,6.423154737720948,14.1812077,6.503798697720947Q14.1651669,6.584442637720947,14.1651669,6.666666507720947Q14.1651669,6.691701320720948,14.166667,6.716691151720947L14.166667,17.500001507720945L5.83333337,17.500001507720945L5.83333337,6.716683208720947Z" fill-rule="evenodd" fill="#61A7FF" fill-opacity="1" style="mix-blend-mode:passthrough"/></g><g><path d="M7.308501777720947,8.905243695441895Q7.199299747720947,8.789119125441895,7.140566647720947,8.640928625441894Q7.081833537720947,8.492738155441895,7.081833477720947,8.333333015441895Q7.081833477720947,8.251109145441895,7.097874637720947,8.170465205441895Q7.113915677720947,8.089821245441895,7.145381447720947,8.013856295441894Q7.176847157720947,7.937891335441894,7.222528277720947,7.869524655441895Q7.268209397720947,7.801158015441895,7.326350447720947,7.743016955441894Q7.384491507720948,7.684875905441895,7.4528581477209475,7.639194725441895Q7.521224827720947,7.593513605441895,7.597189787720947,7.562047895441895Q7.673154737720948,7.530582185441895,7.753798697720947,7.514541145441894Q7.834442637720947,7.498499985441894,7.916666507720947,7.498499985441894Q8.014790735720947,7.498499985441894,8.110240727720948,7.521252215441894Q8.205690707720947,7.544004435441894,8.293263737720947,7.5882686954418945Q8.380836757720948,7.632533075441895,8.455759407720947,7.695896745441894Q8.530682087720947,7.7592604154418945,8.588870647720947,7.838269625441894L10.000000007720947,9.531624715441895L11.411127307720948,7.838271735441895Q11.469316007720947,7.759262085441895,11.544238607720947,7.695897995441895Q11.619161607720947,7.632533905441894,11.706734607720946,7.588269355441895Q11.794307707720947,7.544004795441895,11.889758107720947,7.521252395441895Q11.985208507720948,7.498499985441894,12.083333007720947,7.498499985441894Q12.165556407720947,7.498499985441894,12.246200607720947,7.514541145441894Q12.326844707720948,7.530582185441895,12.402809607720947,7.562047955441894Q12.478774507720948,7.593513665441894,12.547141107720947,7.6391947854418945Q12.615507607720946,7.684875905441895,12.673648807720948,7.743016955441894Q12.731790107720947,7.801158015441895,12.777470607720947,7.869524655441895Q12.823152107720947,7.937891335441894,12.854617607720947,8.013856295441894Q12.886083107720946,8.089821245441895,12.902124407720947,8.170465205441895Q12.918165707720947,8.251109145441895,12.918166207720947,8.333333015441895Q12.918165707720947,8.492737205441895,12.859433607720948,8.640926955441895Q12.800700707720948,8.789116705441895,12.691500207720948,8.905241075441895L10.640184407720948,11.366819815441895Q10.534067107720947,11.494160415441895,10.387296707720948,11.571198415441895Q10.240526007720948,11.648236515441894,10.075446407720946,11.663243815441895Q9.910366907720947,11.678251315441894,9.752110207720946,11.628942715441895Q9.593853707720948,11.579634715441895,9.466513007720947,11.473517415441894Q9.408314607720946,11.425018515441895,9.359815607720947,11.366820315441895L7.308501777720947,8.905243695441895Z" fill-rule="evenodd" fill="#61A7FF" fill-opacity="1" style="mix-blend-mode:passthrough"/></g><g><path d="M7.550017696,14.166666325441895Q7.52503133,14.168166045441895,7.5,14.168166045441895Q7.41777613,14.168166045441895,7.33713219,14.152124885441895Q7.25648823,14.136083845441895,7.18052328,14.104618075441895Q7.10455832,14.073152365441894,7.03619164,14.027471245441895Q6.967825,13.981790125441895,6.90968394,13.923649075441894Q6.85154289,13.865508015441895,6.80586171,13.797141375441894Q6.76018059,13.728774695441894,6.72871488,13.652809735441895Q6.69724917,13.576844785441894,6.68120813,13.496200825441894Q6.66516697,13.415556885441895,6.66516697,13.333333015441895Q6.66516697,13.251109145441895,6.68120813,13.170465205441895Q6.69724917,13.089821245441895,6.72871494,13.013856295441894Q6.76018065,12.937891335441895,6.80586177,12.869524655441895Q6.85154289,12.801158015441894,6.90968394,12.743016955441895Q6.967825,12.684875905441894,7.03619164,12.639194725441895Q7.10455832,12.593513605441895,7.18052328,12.562047895441895Q7.25648823,12.530582185441894,7.33713219,12.514541145441894Q7.41777613,12.498499985441894,7.5,12.498499985441894Q7.52503133,12.498499985441894,7.550017696,12.499999705441894L12.4499822,12.499999705441894Q12.4749684,12.498499985441894,12.5,12.498499985441894Q12.582223899999999,12.498499985441894,12.6628675,12.514541145441894Q12.7435112,12.530582185441894,12.8194761,12.562047955441894Q12.8954411,12.593513665441895,12.963807599999999,12.639194785441894Q13.032174600000001,12.684875905441894,13.090315799999999,12.743016955441895Q13.1484566,12.801158015441894,13.194137600000001,12.869524655441895Q13.2398186,12.937891335441895,13.271284600000001,13.013856295441894Q13.3027501,13.089821245441895,13.3187914,13.170465205441895Q13.3348327,13.251109145441895,13.3348331,13.333333015441895Q13.3348327,13.415556885441895,13.3187914,13.496200825441894Q13.3027501,13.576844785441894,13.271284600000001,13.652809735441895Q13.2398186,13.728774695441894,13.194137600000001,13.797141375441894Q13.1484566,13.865508015441895,13.090315799999999,13.923649075441894Q13.032174600000001,13.981790125441895,12.9638081,14.027471305441894Q12.8954411,14.073152425441894,12.8194761,14.104618135441894Q12.7435112,14.136083845441895,12.6628675,14.152124885441895Q12.582223899999999,14.168166045441895,12.5,14.168166045441895Q12.4749684,14.168166045441895,12.4499822,14.166666325441895L7.550017696,14.166666325441895Z" fill-rule="evenodd" fill="#61A7FF" fill-opacity="1" style="mix-blend-mode:passthrough"/></g><g><path d="M7.550017696,11.666666325441895Q7.52503133,11.668166045441895,7.5,11.668166045441895Q7.41777613,11.668166045441895,7.33713219,11.652124885441895Q7.25648823,11.636083845441895,7.18052328,11.604618075441895Q7.10455832,11.573152365441894,7.03619164,11.527471245441895Q6.967825,11.481790125441895,6.90968394,11.423649075441894Q6.85154289,11.365508015441895,6.80586171,11.297141375441894Q6.76018059,11.228774695441894,6.72871488,11.152809735441895Q6.69724917,11.076844785441894,6.68120813,10.996200825441894Q6.66516697,10.915556885441895,6.66516697,10.833333015441895Q6.66516697,10.751109145441895,6.68120813,10.670465205441895Q6.69724917,10.589821245441895,6.72871494,10.513856295441894Q6.76018065,10.437891335441895,6.80586177,10.369524655441895Q6.85154289,10.301158015441894,6.90968394,10.243016955441895Q6.967825,10.184875905441894,7.03619164,10.139194725441895Q7.10455832,10.093513605441895,7.18052328,10.062047895441895Q7.25648823,10.030582185441894,7.33713219,10.014541145441894Q7.41777613,9.998499985441894,7.5,9.998499985441894Q7.52503133,9.998499985441894,7.550017696,9.999999705441894L12.4499822,9.999999705441894Q12.4749684,9.998499985441894,12.5,9.998499985441894Q12.582223899999999,9.998499985441894,12.6628675,10.014541145441894Q12.7435112,10.030582185441894,12.8194761,10.062047955441894Q12.8954411,10.093513665441895,12.963807599999999,10.139194785441894Q13.032174600000001,10.184875905441894,13.090315799999999,10.243016955441895Q13.1484566,10.301158015441894,13.194137600000001,10.369524655441895Q13.2398186,10.437891335441895,13.271284600000001,10.513856295441894Q13.3027501,10.589821245441895,13.3187914,10.670465205441895Q13.3348327,10.751109145441895,13.3348331,10.833333015441895Q13.3348327,10.915556885441895,13.3187914,10.996200825441894Q13.3027501,11.076844785441894,13.271284600000001,11.152809735441895Q13.2398186,11.228774695441894,13.194137600000001,11.297141375441894Q13.1484566,11.365508015441895,13.090315799999999,11.423649075441894Q13.032174600000001,11.481790125441895,12.9638081,11.527471305441894Q12.8954411,11.573152425441894,12.8194761,11.604618135441894Q12.7435112,11.636083845441895,12.6628675,11.652124885441895Q12.582223899999999,11.668166045441895,12.5,11.668166045441895Q12.4749684,11.668166045441895,12.4499822,11.666666325441895L7.550017696,11.666666325441895Z" fill-rule="evenodd" fill="#61A7FF" fill-opacity="1" style="mix-blend-mode:passthrough"/></g><g><path d="M10.83333331,10.883350711441894Q10.83483303,10.858364345441894,10.83483303,10.833333015441895Q10.83483303,10.751109145441895,10.81879187,10.670465205441895Q10.80275083,10.589821245441895,10.77128506,10.513856295441894Q10.73981935,10.437891335441895,10.69413823,10.369524655441895Q10.64845711,10.301158015441894,10.59031606,10.243016955441895Q10.532175,10.184875905441894,10.46380836,10.139194725441895Q10.39544168,10.093513605441895,10.31947672,10.062047895441895Q10.24351177,10.030582185441894,10.16286781,10.014541145441894Q10.08222387,9.998499985441894,10,9.998499985441894Q9.91777613,9.998499985441894,9.83713219,10.014541145441894Q9.75648823,10.030582185441894,9.68052328,10.062047955441894Q9.60455832,10.093513665441895,9.53619164,10.139194785441894Q9.467825,10.184875905441894,9.40968394,10.243016955441895Q9.35154289,10.301158015441894,9.30586171,10.369524655441895Q9.260180590000001,10.437891335441895,9.22871488,10.513856295441894Q9.19724917,10.589821245441895,9.18120813,10.670465205441895Q9.16516697,10.751109145441895,9.16516697,10.833333015441895Q9.16516697,10.858364345441894,9.16666669,10.883350711441894L9.16666669,15.783315215441895Q9.16516697,15.808301415441894,9.16516697,15.833333015441895Q9.16516697,15.915556915441893,9.18120813,15.996200515441895Q9.19724917,16.076844215441895,9.22871494,16.152809115441894Q9.26018065,16.228774115441894,9.30586177,16.297140615441894Q9.35154289,16.365507615441896,9.40968394,16.423648815441894Q9.467825,16.481789615441894,9.53619164,16.527470615441896Q9.60455832,16.573151615441894,9.68052328,16.604617615441896Q9.75648823,16.636083115441895,9.83713219,16.652124415441897Q9.91777613,16.668165715441894,10,16.668166115441895Q10.08222387,16.668165715441894,10.16286781,16.652124415441897Q10.24351177,16.636083115441895,10.31947672,16.604617615441896Q10.39544168,16.573151615441894,10.46380836,16.527470615441896Q10.532175,16.481789615441894,10.59031606,16.423648815441894Q10.64845711,16.365507615441896,10.69413829,16.297141115441896Q10.739819409999999,16.228774115441894,10.77128512,16.152809115441894Q10.80275083,16.076844215441895,10.81879187,15.996200515441895Q10.83483303,15.915556915441893,10.83483303,15.833333015441895Q10.83483303,15.808301415441894,10.83333331,15.783315215441895L10.83333331,10.883350711441894Z" fill-rule="evenodd" fill="#61A7FF" fill-opacity="1" style="mix-blend-mode:passthrough"/></g><g><path d="M5.883351188279053,4.999999817720948Q5.858364822279053,5.001499537720948,5.833333492279053,5.001499537720948Q5.751109622279053,5.001499537720948,5.670465682279053,4.985458377720947Q5.589821722279053,4.969417337720947,5.513856772279053,4.937951567720948Q5.4378918122790525,4.906485857720948,5.369525132279053,4.860804737720947Q5.301158492279053,4.815123617720947,5.243017432279053,4.756982567720947Q5.184876382279053,4.698841507720947,5.139195202279053,4.630474867720947Q5.093514082279053,4.5621081877209475,5.062048372279053,4.486143227720947Q5.030582662279053,4.410178277720947,5.014541622279053,4.329534317720947Q4.998500462279052,4.248890377720947,4.998500462279052,4.166666507720947Q4.998500462279052,4.084442637720947,5.014541622279053,4.003798697720947Q5.030582662279053,3.9231547377209472,5.062048432279052,3.8471897877209473Q5.093514142279052,3.771224827720947,5.139195262279053,3.7028581477209475Q5.184876382279053,3.634491507720947,5.243017432279053,3.576350447720947Q5.301158492279053,3.5182093977209474,5.369525132279053,3.472528217720947Q5.4378918122790525,3.4268470977209473,5.513856772279053,3.3953813877209473Q5.589821722279053,3.3639156777209474,5.670465682279053,3.347874637720947Q5.751109622279053,3.3318334777209473,5.833333492279053,3.3318334777209473Q5.858364822279053,3.3318334777209473,5.883351188279053,3.3333331977209473L14.116650092279052,3.3333331977209473Q14.141636392279052,3.3318334777209473,14.166667492279053,3.3318334777209473Q14.248891392279052,3.3318334777209473,14.329534092279053,3.347874637720947Q14.410177692279053,3.3639156777209474,14.486142592279053,3.3953814477209474Q14.562107592279053,3.4268471577209474,14.630474592279052,3.472528277720947Q14.698841592279052,3.5182093977209474,14.756983292279052,3.576350447720947Q14.815123992279053,3.634491507720947,14.860804992279053,3.7028581477209475Q14.906485992279054,3.771224827720947,14.937951592279052,3.8471897877209473Q14.969418092279053,3.9231547377209472,14.985459792279054,4.003798697720947Q15.001500592279053,4.084442637720947,15.001500592279053,4.166666507720947Q15.001500592279053,4.248890377720947,14.985459792279054,4.329534317720947Q14.969418092279053,4.410178277720947,14.937951592279052,4.486143227720947Q14.906485992279054,4.5621081877209475,14.860804992279053,4.630474867720947Q14.815123992279053,4.698841507720947,14.756983292279052,4.756982567720947Q14.698841592279052,4.815123617720947,14.630474592279052,4.860804797720947Q14.562108492279053,4.906485917720947,14.486143592279053,4.937951627720947Q14.410178692279052,4.969417337720947,14.329534992279052,4.985458377720947Q14.248891392279052,5.001499537720948,14.166667492279053,5.001499537720948Q14.141636392279052,5.001499537720948,14.116650092279052,4.999999817720948L5.883351188279053,4.999999817720948Z" fill-rule="evenodd" fill="#61A7FF" fill-opacity="1" style="mix-blend-mode:passthrough"/></g><g><path d="M4.9499834,6.666666626930237Q4.9749691,6.665166926930237,5,6.665166926930237Q5.0822239,6.665166926930237,5.1628678,6.681208226930237Q5.2435117,6.697249026930237,5.3194766,6.728714626930237Q5.3954415000000004,6.760180126930237,5.4638083,6.805861626930237Q5.5321748,6.851542626930237,5.5903158,6.9096838269302365Q5.6484571,6.967824626930237,5.6941381,7.036191126930237Q5.739819300000001,7.104557626930236,5.7712851,7.180522526930237Q5.8027505999999995,7.256487526930237,5.8187919,7.337131626930237Q5.8348329,7.417775726930237,5.8348331,7.500000126930237Q5.8348329,7.582223526930237,5.8187919,7.662867626930237Q5.8027505999999995,7.743511826930237,5.7712848,7.819476726930237Q5.739819,7.8954416269302365,5.6941381,7.963807726930237Q5.6484571,8.032174726930236,5.5903161,8.090315926930238Q5.5321751,8.148457126930236,5.4638081,8.194137726930236Q5.3954415000000004,8.239819126930236,5.3194766,8.271284726930237Q5.2435117,8.302750226930236,5.162868,8.318791526930237Q5.0822239,8.334832826930237,5,8.334833226930236Q4.9749651,8.334833226930236,4.9499753,8.333333126930237L2.5,8.333333126930237Q2.417923838,8.333332626930236,2.33742474,8.317320426930237Q2.25692564,8.301308226930237,2.18109715,8.269898526930238Q2.10526866,8.238489726930236,2.03702486,8.192890726930237Q1.96878099,8.147291826930237,1.91074437,8.089254926930238Q1.85270774,8.031218126930238,1.80710876,7.962974226930236Q1.76150966,7.894730226930236,1.73010051,7.818901626930237Q1.69869125,7.743073126930237,1.682679,7.662574426930237Q1.66666675,7.582075726930237,1.66666669,7.4999996269302365L1.66666669,1.6666666269302368Q1.66666675,1.584590464930237,1.68267894,1.5040913669302367Q1.69869125,1.4235922669302368,1.73010051,1.3477637769302369Q1.76150966,1.271935286930237,1.80710876,1.2036914869302369Q1.85270774,1.1354476169302368,1.91074437,1.0774109969302368Q1.96878099,1.0193743669302369,2.03702486,0.9737753869302368Q2.10526866,0.9281762869302368,2.18109715,0.8967671369302368Q2.25692564,0.8653578769302368,2.33742474,0.8493456269302369Q2.417923838,0.8333333769302368,2.5,0.8333333169302368L17.499999000000003,0.8333333169302368Q17.582075,0.8333333769302368,17.662574,0.8493455669302368Q17.743073000000003,0.8653578769302368,17.8189,0.8967671369302368Q17.894728,0.9281762869302368,17.962972999999998,0.9737753869302368Q18.031216999999998,1.0193743669302369,18.089254,1.0774109969302368Q18.147289999999998,1.1354476169302368,18.192889,1.2036914869302369Q18.238487,1.271935286930237,18.269897,1.3477637769302369Q18.301307,1.4235922669302368,18.317318999999998,1.5040913669302367Q18.333332,1.584590464930237,18.333332,1.6666666269302368L18.333332,7.4999996269302365Q18.333332,7.582075726930237,18.317320000000002,7.662574426930237Q18.301307,7.743073126930237,18.269897,7.818901626930237Q18.238487,7.894730226930236,18.192889,7.962974226930236Q18.147289999999998,8.031218126930238,18.089254,8.089254926930238Q18.031216999999998,8.147291826930237,17.962972999999998,8.192890726930237Q17.894728999999998,8.238489726930236,17.818901,8.269899026930236Q17.743073000000003,8.301308226930237,17.662574,8.317320426930237Q17.582075,8.333332626930236,17.499999000000003,8.333333126930237L15.050025,8.333333126930237Q15.025035,8.334833226930236,15,8.334833226930236Q14.917776,8.334832826930237,14.837132,8.318791526930237Q14.756487,8.302750226930236,14.680522,8.271284726930237Q14.604557,8.239819126930236,14.53619,8.194137726930236Q14.467823,8.148457126930236,14.409683,8.090315926930238Q14.351542,8.032174726930236,14.305861,7.963808226930237Q14.26018,7.8954416269302365,14.228714,7.819476726930237Q14.197248,7.743511826930237,14.181207,7.662867226930237Q14.165167,7.582223526930237,14.165167,7.500000126930237Q14.165167,7.417775726930237,14.181207,7.337131626930237Q14.197248,7.256487526930237,14.228713,7.180522526930237Q14.26018,7.104557626930236,14.305861,7.036191126930237Q14.351542,6.967824626930237,14.409683,6.9096838269302365Q14.467823,6.851542626930237,14.53619,6.805861626930237Q14.604557,6.760180126930237,14.680522,6.728714626930237Q14.756487,6.697249026930237,14.837132,6.681208226930237Q14.917776,6.665166926930237,15,6.665166926930237Q15.025031,6.665166926930237,15.050016,6.666666626930237L16.666666,6.666666626930237L16.666666,2.499999936930237L3.33333331,2.499999936930237L3.33333331,6.666666626930237L4.9499834,6.666666626930237Z" fill-rule="evenodd" fill="#61A7FF" fill-opacity="1" style="mix-blend-mode:passthrough"/></g></g></g></svg>